<svg xmlns="http://www.w3.org/2000/svg" viewBox="0 0 980 620" role="img" aria-label="Candle anatomy diagram">
  <rect width="980" height="620" fill="#f7f3ec" />
  <rect x="52" y="56" width="876" height="508" rx="24" fill="#fffdfa" stroke="#d8ccb8" stroke-width="3" />
  <text x="88" y="118" fill="#1c1c1c" font-family="Georgia, serif" font-size="34" font-weight="700">Candle Anatomy</text>
  <text x="88" y="154" fill="#6c645a" font-family="Arial, sans-serif" font-size="20">A candle is a compact record of where price opened, traveled, and finally closed.</text>

  <line x1="490" y1="186" x2="490" y2="446" stroke="#b79255" stroke-width="8" stroke-linecap="round" />
  <rect x="420" y="246" width="140" height="126" rx="12" fill="#f5ede0" stroke="#d4c19e" stroke-width="3" />
  <line x1="490" y1="372" x2="490" y2="498" stroke="#b79255" stroke-width="8" stroke-linecap="round" />

  <g font-family="Arial, sans-serif" font-size="18" fill="#5e5448">
    <line x1="320" y1="186" x2="420" y2="186" stroke="#c8b18d" stroke-width="2.5" />
    <text x="170" y="190">High: furthest</text>
    <text x="170" y="212">price reached</text>

    <line x1="560" y1="246" x2="676" y2="246" stroke="#c8b18d" stroke-width="2.5" />
    <text x="684" y="252">Open or close</text>

    <line x1="560" y1="372" x2="706" y2="372" stroke="#c8b18d" stroke-width="2.5" />
    <text x="714" y="378">Close or open</text>

    <line x1="320" y1="498" x2="420" y2="498" stroke="#c8b18d" stroke-width="2.5" />
    <text x="176" y="500">Low: furthest</text>
    <text x="176" y="522">price reached</text>
  </g>

  <rect x="96" y="454" width="248" height="64" rx="16" fill="#f5ede0" stroke="#d8ccb8" />
  <text x="118" y="482" fill="#5e5448" font-family="Arial, sans-serif" font-size="17">Long wick: price visited</text>
  <text x="118" y="504" fill="#5e5448" font-family="Arial, sans-serif" font-size="17">the area but failed to stay.</text>

  <rect x="628" y="446" width="248" height="72" rx="16" fill="#f5ede0" stroke="#d8ccb8" />
  <text x="650" y="474" fill="#5e5448" font-family="Arial, sans-serif" font-size="17">Large body: stronger move</text>
  <text x="650" y="496" fill="#5e5448" font-family="Arial, sans-serif" font-size="17">between open and close.</text>
</svg>
