<svg xmlns="http://www.w3.org/2000/svg" viewBox="0 0 980 620" role="img" aria-label="Reversal pattern overview">
  <rect width="980" height="620" fill="#ffffff" />
  <rect x="52" y="56" width="876" height="508" rx="24" fill="#ffffff" stroke="#d9d9d9" stroke-width="3" />
  <text x="88" y="118" fill="#1c1c1c" font-family="Georgia, serif" font-size="34" font-weight="700">Reversal Pattern Overview</text>
  <text x="88" y="154" fill="#6c645a" font-family="Arial, sans-serif" font-size="20">Names help organize the chart, but the real test is whether price actually fails at a meaningful zone.</text>

  <g font-family="Arial, sans-serif" text-anchor="middle">
    <rect x="104" y="220" width="240" height="220" rx="20" fill="#f6f6f6" stroke="#d9d9d9" stroke-width="2.5" />
    <path d="M132 388 180 312 228 356 276 308 324 376" fill="none" stroke="#2f5260" stroke-width="5" />
    <line x1="132" y1="388" x2="324" y2="388" stroke="#b79156" stroke-width="4" />
    <text x="224" y="414" fill="#5e5448" font-size="20">Double top / bottom logic</text>

    <rect x="370" y="220" width="240" height="220" rx="20" fill="#f6f6f6" stroke="#d9d9d9" stroke-width="2.5" />
    <path d="M398 360 446 302 494 332 542 278 590 352" fill="none" stroke="#2f5260" stroke-width="5" />
    <text x="490" y="414" fill="#5e5448" font-size="20">Head-and-shoulders idea</text>

    <rect x="636" y="220" width="240" height="220" rx="20" fill="#f6f6f6" stroke="#d9d9d9" stroke-width="2.5" />
    <path d="M664 260 826 226" fill="none" stroke="#b79156" stroke-width="4" />
    <path d="M664 372 826 322" fill="none" stroke="#b79156" stroke-width="4" />
    <path d="M672 346 716 312 760 286 804 256" fill="none" stroke="#2f5260" stroke-width="5" />
    <text x="756" y="414" fill="#5e5448" font-size="20">Wedge-style exhaustion</text>
  </g>

  <rect x="104" y="482" width="772" height="40" rx="14" fill="#f6f6f6" stroke="#d9d9d9" />
  <text x="132" y="508" fill="#5f5648" font-family="Arial, sans-serif" font-size="17">A reversal pattern is only actionable when confirmation appears and the invalidation point stays clear.</text>
</svg>
