<svg xmlns="http://www.w3.org/2000/svg" viewBox="0 0 900 560" role="img" aria-label="Support and resistance figure">
  <rect width="900" height="560" fill="#f7f3ec" />
  <g opacity="0.16" stroke="#b7ad9c">
    <path d="M80 80H840M80 160H840M80 240H840M80 320H840M80 400H840M80 480H840" />
    <path d="M80 80V500M180 80V500M280 80V500M380 80V500M480 80V500M580 80V500M680 80V500M780 80V500" />
  </g>
  <path d="M90 370 150 330 210 346 270 288 330 304 390 258 450 278 510 220 570 238 630 176 690 198 750 158 810 174" fill="none" stroke="#3d5d66" stroke-width="5" />
  <line x1="80" y1="170" x2="840" y2="170" stroke="#b79255" stroke-dasharray="10 8" stroke-width="4" />
  <line x1="80" y1="380" x2="840" y2="380" stroke="#b79255" stroke-dasharray="10 8" stroke-width="4" />
  <text x="92" y="155" fill="#5e5448" font-family="Arial, sans-serif" font-size="24">Resistance</text>
  <text x="92" y="365" fill="#5e5448" font-family="Arial, sans-serif" font-size="24">Support</text>
  <g font-family="Arial, sans-serif">
    <rect x="602" y="86" width="220" height="48" rx="14" fill="#f7efe0" stroke="#d4c19e" stroke-width="2" />
    <text x="624" y="117" fill="#5e5448" font-size="22">Repeated rejection</text>
    <rect x="468" y="398" width="286" height="48" rx="14" fill="#f7efe0" stroke="#d4c19e" stroke-width="2" />
    <text x="490" y="429" fill="#5e5448" font-size="22">Higher lows inside range</text>
  </g>
</svg>
