<svg xmlns="http://www.w3.org/2000/svg" viewBox="0 0 980 620" role="img" aria-label="Trade plan anatomy">
  <rect width="980" height="620" fill="#f7f3ec" />
  <rect x="52" y="56" width="876" height="508" rx="24" fill="#fffdfa" stroke="#d8ccb8" stroke-width="3" />
  <text x="88" y="118" fill="#1c1c1c" font-family="Georgia, serif" font-size="34" font-weight="700">Trade Plan Anatomy</text>
  <text x="88" y="152" fill="#6d655c" font-family="Arial, sans-serif" font-size="18">A plan should define the setup, the trigger,</text>
  <text x="88" y="176" fill="#6d655c" font-family="Arial, sans-serif" font-size="18">the invalidation point, and when staying flat is correct.</text>

  <g fill="none" stroke-width="4" stroke-linecap="round" stroke-linejoin="round">
    <path d="M116 418C182 376 220 354 282 332C342 310 394 314 438 288C500 252 544 222 602 206C650 192 718 182 816 188" stroke="#2f5260" />
    <line x1="116" y1="448" x2="840" y2="448" stroke="#d7c8ad" />
    <line x1="296" y1="186" x2="296" y2="478" stroke="#b79255" stroke-dasharray="10 8" />
    <line x1="462" y1="186" x2="462" y2="478" stroke="#b79255" stroke-dasharray="10 8" />
    <line x1="662" y1="186" x2="662" y2="478" stroke="#b79255" stroke-dasharray="10 8" />
  </g>

  <g font-family="Arial, sans-serif" font-size="18">
    <rect x="226" y="470" width="132" height="44" rx="12" fill="#f7efe0" stroke="#d4c19e" />
    <text x="258" y="498" fill="#5e5448">Context</text>

    <rect x="396" y="470" width="122" height="44" rx="12" fill="#f7efe0" stroke="#d4c19e" />
    <text x="430" y="498" fill="#5e5448">Entry</text>

    <rect x="590" y="470" width="146" height="44" rx="12" fill="#f7efe0" stroke="#d4c19e" />
    <text x="611" y="498" fill="#5e5448">Invalidation</text>
  </g>

  <g font-family="Arial, sans-serif">
    <rect x="676" y="214" width="204" height="168" rx="16" fill="#f7efe0" stroke="#d4c19e" />
    <text x="702" y="256" fill="#2a2014" font-size="18.5" font-weight="700">Before entry</text>
    <text x="702" y="289" fill="#5e5448" font-size="14.5">1. What proves it?</text>
    <text x="702" y="313" fill="#5e5448" font-size="14.5">Write the trigger clearly.</text>
    <text x="702" y="340" fill="#5e5448" font-size="14.5">2. What breaks it?</text>
    <text x="702" y="364" fill="#5e5448" font-size="14.5">Keep invalidation clear.</text>

    <rect x="88" y="210" width="248" height="112" rx="16" fill="#f7efe0" stroke="#d4c19e" />
    <text x="108" y="244" fill="#50473d" font-size="17">No trade is also a position.</text>
    <text x="108" y="268" fill="#50473d" font-size="17">If the trigger is unclear,</text>
    <text x="108" y="292" fill="#50473d" font-size="17">staying flat preserves capital.</text>
  </g>
</svg>
