<svg xmlns="http://www.w3.org/2000/svg" viewBox="0 0 128 128" role="img" aria-label="Tight contact monogram">
  <defs>
    <linearGradient id="bg" x1="0%" y1="0%" x2="100%" y2="100%">
      <stop offset="0%" stop-color="#0d131c" />
      <stop offset="100%" stop-color="#1b2736" />
    </linearGradient>
    <linearGradient id="gold" x1="0%" y1="0%" x2="100%" y2="100%">
      <stop offset="0%" stop-color="#f0d3a0" />
      <stop offset="100%" stop-color="#b79156" />
    </linearGradient>
    <linearGradient id="wave" x1="0%" y1="0%" x2="100%" y2="0%">
      <stop offset="0%" stop-color="#74c6bb" />
      <stop offset="100%" stop-color="#f0d3a0" />
    </linearGradient>
  </defs>
  <rect width="128" height="128" rx="30" fill="url(#bg)" />
  <rect x="7" y="7" width="114" height="114" rx="25" fill="none" stroke="#344252" stroke-width="2.4" />
  <path d="M64 17 104.7 40.5 104.7 87.5 64 111 23.3 87.5 23.3 40.5Z" fill="none" stroke="url(#gold)" stroke-width="4.1" />
  <path d="M64 22 100.37 43 100.37 85 64 106 27.63 85 27.63 43Z" fill="none" stroke="#435061" stroke-width="2.2" />
  <path d="M40 85V42H50L64 60L78 42H88V85H78V59L64 76L50 59V85Z" fill="#f7f2e7" />
  <path d="M42 88C46 86 49 85 50 85C54 85 58 89 64 89C70 89 74 85 78 85C82 85 86 84 90 79" fill="none" stroke="url(#wave)" stroke-width="4.1" stroke-linecap="round" stroke-linejoin="round" />
</svg>
