<svg xmlns="http://www.w3.org/2000/svg" viewBox="0 0 900 560" role="img" aria-label="Support and resistance figure">
  <rect width="900" height="560" fill="#0b1017" />
  <g opacity="0.12" stroke="#f3efe6">
    <path d="M80 80H840M80 160H840M80 240H840M80 320H840M80 400H840M80 480H840" />
    <path d="M80 80V500M180 80V500M280 80V500M380 80V500M480 80V500M580 80V500M680 80V500M780 80V500" />
  </g>
  <path d="M90 370 150 330 210 346 270 288 330 304 390 258 450 278 510 220 570 238 630 176 690 198 750 158 810 174" fill="none" stroke="#74c6bb" stroke-width="5" />
  <line x1="80" y1="170" x2="840" y2="170" stroke="#d2b27a" stroke-dasharray="10 8" stroke-width="4" />
  <line x1="80" y1="380" x2="840" y2="380" stroke="#d2b27a" stroke-dasharray="10 8" stroke-width="4" />
  <text x="92" y="155" fill="#f3efe6" font-family="Manrope, sans-serif" font-size="24">Resistance</text>
  <text x="92" y="365" fill="#f3efe6" font-family="Manrope, sans-serif" font-size="24">Support</text>
  <g fill="#f3efe6" font-family="Manrope, sans-serif" font-size="24">
    <text x="650" y="120">Repeated rejection</text>
    <text x="495" y="430">Higher lows inside range</text>
  </g>
</svg>
