<svg xmlns="http://www.w3.org/2000/svg" viewBox="0 0 128 128" role="img" aria-label="Ribbon floor monogram">
  <defs>
    <linearGradient id="bg" x1="0%" y1="0%" x2="100%" y2="100%">
      <stop offset="0%" stop-color="#0b1017" />
      <stop offset="100%" stop-color="#182433" />
    </linearGradient>
    <linearGradient id="gold" x1="0%" y1="0%" x2="100%" y2="100%">
      <stop offset="0%" stop-color="#efd19c" />
      <stop offset="100%" stop-color="#b89258" />
    </linearGradient>
    <linearGradient id="wave" x1="0%" y1="0%" x2="100%" y2="0%">
      <stop offset="0%" stop-color="#74c6bb" />
      <stop offset="100%" stop-color="#f0d3a0" />
    </linearGradient>
  </defs>
  <rect width="128" height="128" rx="30" fill="url(#bg)" />
  <rect x="10" y="10" width="108" height="108" rx="24" fill="none" stroke="url(#gold)" stroke-width="3.8" />
  <rect x="20" y="20" width="88" height="88" rx="18" fill="none" stroke="#2d3948" stroke-width="2.1" />
  <path d="M38 84V44H47L64 63 81 44H90V84H80V59L64 75 48 59V84Z" fill="#f7f2e7" />
  <path d="M25 95C37 91 46 88 55 88C64 88 70 92 79 92C88 92 95 83 103 73" fill="none" stroke="url(#wave)" stroke-width="4.1" stroke-linecap="round" />
</svg>
